/* XPM */
static char * bomb_xpm[] = {
/* width height ncolors chars_per_pixel */
"32 32 4 1",
/* colors */
" 	s None	c None m None",
".	c black m black",
"X	c white m white",
"o	c red m black",
/* pixels */
"                                ",
"                                ",
"                                ",
"                                ",
"                                ",
"            ....                ",
"           .    ..              ",
"           .     .              ",
"           .     .              ",
"         ....     .             ",
"         ....     .             ",
"        .X..X.     .            ",
"       ...XX...    . o     o    ",
"      ..........   .    o  o    ",
"     ............   . o         ",
"     ............   . oo o      ",
"    ..............  .           ",
"    ..............   oooo oo    ",
"    ..............              ",
"    ..............    oo oo     ",
"    .........X....   o          ",
"    .........X.... oo  o   o    ",
"     .......X....               ",
"     ............      o        ",
"      ..........                ",
"       ........                 ",
"        ......                  ",
"                                ",
"                                ",
"                                ",
"                                ",
"                                "};
