/* XPM */
static char * exclaim_xpm[] = {
/* width height ncolors chars_per_pixel */
"32 32 4 1",
/* colors */
" 	s None	c None m None",
".	c blue m black",
"X	c gray m white",
"o	c black m black",
/* pixels */
"                                ",
"           ..........           ",
"         ..............         ",
"       ..................       ",
"      ....................      ",
"     ..........XX..........     ",
"    ..........XXXX..........    ",
"   ..........XXXXXX..........   ",
"   ..........XXXXXXo.........   ",
"  ...........XXXXXXo..........  ",
"  ...........XXXXXXo..........  ",
" ............XXXXXXo........... ",
" ............XXXXXXo........... ",
" ............XXXXXXo........... ",
" ............XXXXXXo........... ",
" ............XXXXXXo........... ",
" ............XXXXXXo........... ",
" .............XXXXo............ ",
" ..............XXo............. ",
" ...............o.............. ",
" .............................. ",
"  ............................  ",
"  ............................  ",
"   ...........XXXX...........   ",
"   ..........XXXXXX..........   ",
"    .........XXXXXXo........    ",
"     .........XXXXo........     ",
"      .........ooo........      ",
"       ..................       ",
"         ..............         ",
"           ..........           ",
"                                "};
