/* XPM */
static char * exit_xpm[] = {
/* width height ncolors chars_per_pixel */
"32 32 3 1",
/* colors */
" 	s None	c None m None",
".	c black m black",
"X	c yellow m white",
/* pixels */
"                                ",
"   ..........................   ",
"  ............................  ",
" ...XXXXXXXXXXXXXXXXXXXXXXXX... ",
" ..XXXXXXXXXXXXXXXXXXXXXXXXXX.. ",
" ..XX.....X..XX..X..X......XX.. ",
" ..XX.....X..XX..X..X......XX.. ",
" ..XX..XXXXX....XX..XXX..XXXX.. ",
" ..XX....XXXX..XXX..XXX..XXXX.. ",
" ..XX....XXXX..XXX..XXX..XXXX.. ",
" ..XX..XXXXX....XX..XXX..XXXX.. ",
" ..XX.....X..XX..X..XXX..XXXX.. ",
" ..XX.....X..XX..X..XXX..XXXX.. ",
" ..XXXXXXXXXXXXXXXXXXXXXXXXXX.. ",
" ..XXXXXXXXXXXXXXXXXXXXXXXXXX.. ",
" ..XXXXXXXXXXXX.......XXXXXXX.. ",
" ..XXXXXXXXXXXXX......XXXXXXX.. ",
" ..XXXXXXXXXXXXXX.....XXXXXXX.. ",
" ..XXXXXXXXXXXXX......XXXXXXX.. ",
" ..XXXXXXXXXXXX.......XXXXXXX.. ",
" ..XXXXXXXXXXX.....X..XXXXXXX.. ",
" ..XXXXXXXXXX.....XXX.XXXXXXX.. ",
" ..XXXXXXXXX.....XXXXXXXXXXXX.. ",
" ..XXXXXXXX.....XXXXXXXXXXXXX.. ",
" ..XXXXXXX.....XXXXXXXXXXXXXX.. ",
" ..XXXXXXX....XXXXXXXXXXXXXXX.. ",
" ..XXXXXXXX..XXXXXXXXXXXXXXXX.. ",
" ..XXXXXXXXXXXXXXXXXXXXXXXXXX.. ",
" ...XXXXXXXXXXXXXXXXXXXXXXXX... ",
"  ............................  ",
"   ..........................   ",
"                                "};
