/* XPM */
static char * hourglass_xpm[] = {
/* width height ncolors chars_per_pixel */
"32 32 5 1",
/* colors */
" 	s None c None m None",
".	c brown m black",
"X	c black m black",
"o	c white m white",
"O	c SandyBrown m black",
/* pixels */
"                                ",
" .............................. ",
" .............................. ",
"  ..   XooooooooooooooooX   ..  ",
"  ..  XooooooooooooooooooX  ..  ",
"  ..  XooooooooooooooooooX  ..  ",
"  ..  XooooooooooooooooooX  ..  ",
"  ..  XooooooooooooooooooX  ..  ",
"  ..  XooooooooooooooooooX  ..  ",
"  ..   XooooooooooooooooX   ..  ",
"  ..    XOOOOOOooOOOOOOX    ..  ",
"  ..     XOOOOOOOOOOOOX     ..  ",
"  ..      XOOOOOOOOOOX      ..  ",
"  ..       XXOOOOOOOX       ..  ",
"  ..         XXOOXX         ..  ",
"  ..           XX           ..  ",
"  ..           XX           ..  ",
"  ..         XXOoXX         ..  ",
"  ..       XXooooooXX       ..  ",
"  ..      XoooooOooooX      ..  ",
"  ..     XooooooooooooX     ..  ",
"  ..    XooooooOoooooooX    ..  ",
"  ..   XooooooooooooooooX   ..  ",
"  ..  XooooooOOOOooooooooX  ..  ",
"  ..  XooooooOOOOOOooooooX  ..  ",
"  ..  XoooooOOOOOOOOOooooX  ..  ",
"  ..  XoOOOOOOOOOOOOOOOOoX  ..  ",
"  ..  XOOOOOOOOOOOOOOOOOOX  ..  ",
"  ..   XOOOOOOOOOOOOOOOOX   ..  ",
" .............................. ",
" .............................. ",
"                                "};
