/* XPM */
static char * preserver_xpm[] = {
/* width height ncolors chars_per_pixel */
"32 32 4 1",
/* colors */
" 	s None c None m None",
".	c white m black",
"X	c red m white",
"o	c yellow m black",
/* pixels */
"                                ",
"                                ",
"                                ",
"                                ",
"                                ",
"             .XXX.              ",
"           ...XXX...            ",
"     oo   ....XXX.oooooo        ",
"    ooooooo...XXXooooo  o       ",
"    o   .ooo..XXoooo...  o      ",
"   oo  ...ooo.  ooo..... oo     ",
"   o   ....oo    o......  o     ",
"   o  ......       ......  o    ",
"   o  .....         .....  o    ",
"   o  XXXXX         XXXXX  o    ",
"   o  XXXXX         XXXXX  o    ",
"   o  XXXXX  ooo    XXXXX  o    ",
"   o  .....  o  oo  .....  o    ",
"   o  ......oo   oo......  o    ",
"   oo  ......     ......   o    ",
"    o  .......   .......   o    ",
"    oo  ......XXX......   o     ",
"     oooo.....XXX.....    o     ",
"          ....XXX....o    o     ",
"           ...XXX... o  oo      ",
"             .XXX.    ooo       ",
"                                ",
"                                ",
"                                ",
"                                ",
"                                ",
"                                "};
