/* XPM */
static char * tick_xpm[] = {
/* width height ncolors chars_per_pixel */
"32 32 4 1",
/* colors */
" 	s None c None m None",
".	c blue m black",
"X	c gray m white",
"o	c black m black",
/* pixels */
"                                ",
"           ..........           ",
"         ..............         ",
"       ..................       ",
"      ....................      ",
"     ......................     ",
"    ........................    ",
"   ..........................   ",
"   ..........................   ",
"  ............................  ",
"  ...................XX.......  ",
" ...................XXXX....... ",
" ..................XXXXXo...... ",
" .................XXXXXo....... ",
" ................XXXXXo........ ",
" ...............XXXXXo......... ",
" .......X......XXXXXo.......... ",
" ......XXX....XXXXXo........... ",
" .....XXXXX..XXXXXo............ ",
" ......XXXXXXXXXXo............. ",
" .......XXXXXXXXo.............. ",
"  .......XXXXXXo..............  ",
"  ........XXXXo...............  ",
"   ........XXo...............   ",
"   .........o................   ",
"    ........................    ",
"     ......................     ",
"      ....................      ",
"       ..................       ",
"         ..............         ",
"           ..........           ",
"                                "};
