#define example_m_width 60
#define example_m_height 20
static char example_m_bits[] = {
   0xff, 0xff, 0xff, 0x3f, 0x00, 0x00, 0x00, 0x00, 0x01, 0x00, 0x00, 0x00,
   0x00, 0x00, 0x00, 0x00, 0x01, 0x02, 0x82, 0x03, 0x00, 0x00, 0x00, 0x00,
   0x03, 0x06, 0x43, 0x04, 0x00, 0x00, 0x00, 0x00, 0x03, 0x8a, 0x22, 0x08,
   0x00, 0x00, 0x00, 0x00, 0x07, 0x52, 0x22, 0x08, 0x00, 0x00, 0x00, 0x00,
   0x07, 0x22, 0x22, 0x08, 0x00, 0x00, 0x00, 0x00, 0x0f, 0x02, 0x22, 0x08,
   0x00, 0x00, 0x00, 0x00, 0x0f, 0x02, 0x22, 0x08, 0x00, 0x00, 0x00, 0x00,
   0x1f, 0x02, 0x22, 0x08, 0x00, 0x00, 0x00, 0x00, 0x1f, 0x02, 0x22, 0x08,
   0x00, 0x00, 0x00, 0x00, 0x0f, 0x02, 0x22, 0x08, 0x00, 0x00, 0x00, 0x00,
   0x0f, 0x02, 0x22, 0x08, 0x00, 0x00, 0x00, 0x00, 0x07, 0x02, 0x22, 0x08,
   0x00, 0x00, 0x00, 0x00, 0x07, 0x02, 0x22, 0x08, 0x00, 0x00, 0x00, 0x00,
   0x03, 0x02, 0x22, 0x08, 0x00, 0x00, 0x00, 0x00, 0x03, 0x02, 0x42, 0x04,
   0x00, 0x00, 0x00, 0x00, 0x01, 0x02, 0x82, 0x03, 0x00, 0x00, 0x00, 0x00,
   0x01, 0x00, 0x00, 0x00, 0x00, 0x00, 0x00, 0x00, 0xff, 0xff, 0xff, 0x3f,
   0x00, 0x00, 0x00, 0x00};
